<svg width="14" height="14" viewBox="0 0 14 14" fill="none" xmlns="http://www.w3.org/2000/svg">
<path d="M13.2883 11.9617C13.4644 12.1379 13.5633 12.3767 13.5633 12.6258C13.5633 12.8749 13.4644 13.1137 13.2883 13.2899C13.1122 13.466 12.8733 13.5649 12.6242 13.5649C12.3751 13.5649 12.1363 13.466 11.9602 13.2899L7 8.32814L2.03828 13.2883C1.86216 13.4644 1.62329 13.5634 1.37422 13.5634C1.12514 13.5634 0.886273 13.4644 0.710153 13.2883C0.534033 13.1122 0.435089 12.8733 0.435089 12.6242C0.435089 12.3752 0.534033 12.1363 0.710153 11.9602L5.67187 7.00001L0.711715 2.0383C0.535595 1.86218 0.436652 1.62331 0.436652 1.37423C0.436652 1.12516 0.535595 0.886291 0.711715 0.710171C0.887835 0.534051 1.12671 0.435107 1.37578 0.435107C1.62485 0.435107 1.86372 0.534051 2.03984 0.710171L7 5.67189L11.9617 0.70939C12.1378 0.533269 12.3767 0.434326 12.6258 0.434326C12.8748 0.434326 13.1137 0.533269 13.2898 0.70939C13.466 0.88551 13.5649 1.12438 13.5649 1.37345C13.5649 1.62252 13.466 1.86139 13.2898 2.03751L8.32812 7.00001L13.2883 11.9617Z" fill="white"/>
</svg>
